<?xml version="1.0" standalone="no"?>
<!DOCTYPE svg PUBLIC "-//W3C//DTD SVG 20010904//EN"
 "http://www.w3.org/TR/2001/REC-SVG-20010904/DTD/svg10.dtd">
<svg version="1.0" xmlns="http://www.w3.org/2000/svg"
 width="1559.000000pt" height="1559.000000pt" viewBox="0 0 1559.000000 1559.000000"
 preserveAspectRatio="xMidYMid meet">

<g transform="translate(0.000000,1559.000000) scale(0.100000,-0.100000)"
fill="#000000" stroke="none">
<path d="M7640 13914 c-602 -53 -992 -124 -1470 -269 -757 -230 -1499 -623
-2118 -1122 -1354 -1091 -2192 -2633 -2366 -4358 -34 -326 -39 -897 -11 -1160
37 -354 60 -510 106 -740 215 -1066 695 -2047 1414 -2891 150 -178 519 -545
700 -698 912 -775 2005 -1278 3162 -1455 1503 -230 3017 68 4298 848 1290 785
2265 1999 2743 3416 158 469 252 906 309 1440 25 241 26 985 0 1220 -84 769
-254 1401 -554 2055 -604 1313 -1648 2396 -2933 3040 -723 363 -1421 566
-2255 656 -108 12 -267 17 -565 19 -228 1 -435 1 -460 -1z m-15 -526 c7 -18
50 -136 95 -263 44 -126 89 -252 99 -280 l19 -49 62 194 c34 107 78 247 98
310 l37 115 92 3 92 3 -73 -213 c-40 -117 -106 -309 -146 -425 l-73 -213 -92
0 -92 0 -73 198 c-41 108 -110 296 -156 417 l-81 220 71 6 c39 3 79 6 89 7 12
1 23 -9 32 -30z m1295 -25 c113 -30 193 -97 243 -203 27 -55 32 -79 35 -160 7
-166 -41 -303 -137 -393 -73 -69 -126 -89 -243 -95 -243 -11 -402 109 -439
333 -14 89 8 231 51 322 85 183 269 256 490 196z m-2234 -151 c60 -31 139
-133 117 -152 -4 -4 -40 -17 -79 -29 l-70 -22 -41 40 c-33 33 -48 41 -78 41
-58 0 -114 -21 -151 -56 -39 -36 -44 -72 -13 -100 19 -17 43 -20 208 -24 211
-7 239 -15 303 -90 88 -102 74 -276 -28 -357 -81 -63 -200 -103 -308 -103 -84
0 -142 23 -199 78 -43 42 -83 110 -70 122 4 4 37 19 73 33 l65 26 34 -40 c41
-49 78 -69 128 -69 64 0 116 20 155 60 48 48 53 102 12 141 -25 23 -30 24
-187 25 -197 1 -245 13 -305 79 -83 89 -83 211 0 301 99 107 318 156 434 96z
m2994 -22 c16 -4 25 -14 24 -26 -1 -10 -27 -107 -59 -214 -90 -305 -125 -424
-125 -431 0 -4 8 -9 18 -12 117 -33 378 -110 381 -113 7 -6 -32 -134 -41 -134
-5 0 -64 16 -131 36 -315 92 -432 126 -434 128 -1 1 5 24 13 51 25 82 175 595
196 669 10 38 21 73 24 77 2 4 28 1 57 -8 28 -9 63 -19 77 -23z m841 -275 l70
-36 -54 -102 c-172 -321 -227 -437 -227 -474 0 -51 29 -96 84 -128 60 -35 113
-42 154 -21 43 22 60 49 239 392 37 72 75 141 84 154 l15 23 70 -38 c38 -21
71 -40 73 -41 3 -3 -35 -77 -198 -382 -123 -231 -189 -289 -323 -280 -107 6
-266 94 -327 179 -64 88 -59 182 17 337 89 180 235 452 244 452 4 0 40 -16 79
-35z m-4709 -63 c84 -41 154 -117 208 -224 122 -243 51 -463 -187 -576 -66
-31 -89 -37 -162 -40 -70 -3 -96 0 -144 18 -116 44 -212 150 -269 297 -94 242
6 449 264 544 40 15 73 19 138 17 73 -3 95 -8 152 -36z m5575 -424 c49 -33 63
-49 63 -68 0 -14 -9 -160 -20 -324 -11 -165 -18 -301 -16 -303 2 -2 73 94 157
214 84 120 155 221 159 225 7 9 130 -72 130 -85 0 -8 -420 -607 -463 -661
l-23 -29 -67 49 c-61 44 -67 51 -67 84 0 32 22 379 34 543 2 31 1 57 -2 57 -4
0 -74 -97 -157 -215 -82 -118 -154 -214 -158 -215 -9 0 -127 80 -127 86 0 2
142 205 412 587 38 53 72 97 76 97 4 0 35 -19 69 -42z m-6516 -38 c83 -23 169
-139 169 -227 0 -50 -18 -99 -54 -146 l-26 -33 69 -11 c65 -10 361 -126 361
-141 -1 -4 -36 -31 -80 -61 l-79 -53 -161 62 c-199 77 -230 82 -299 45 -28
-16 -51 -33 -51 -38 0 -5 41 -69 91 -141 50 -72 93 -136 95 -141 4 -9 -70 -67
-122 -98 -7 -4 -74 83 -170 221 -87 125 -195 280 -241 346 l-83 118 23 18 c58
44 346 239 377 255 69 35 119 42 181 25z m7473 -772 l227 -241 -51 -51 -51
-51 -83 89 c-46 49 -88 87 -93 85 -6 -2 -122 -109 -258 -238 l-247 -233 -59
58 c-32 32 -59 61 -59 64 0 3 115 113 255 244 l254 239 -84 90 -85 91 47 48
c26 26 50 48 54 48 4 0 109 -109 233 -242z m-8286 179 c23 -23 42 -46 42 -51
0 -4 -69 -80 -152 -168 l-153 -160 69 -64 68 -64 92 98 c50 53 114 121 140
150 27 28 54 52 59 52 14 0 97 -81 97 -93 0 -6 -44 -55 -97 -111 -54 -56 -118
-122 -143 -149 l-44 -47 79 -75 c44 -41 83 -74 86 -75 4 0 76 73 160 163 85
89 159 163 164 165 6 1 31 -19 57 -45 l47 -48 -220 -233 -220 -232 -247 232
c-136 128 -274 258 -306 289 l-59 57 19 24 c45 57 400 428 409 428 6 0 30 -19
53 -43z m4257 -518 c321 -55 616 -185 982 -431 222 -149 356 -204 573 -235
105 -14 134 -15 248 -3 76 7 158 10 198 6 86 -9 203 -48 260 -86 194 -134 212
-398 40 -618 -24 -31 -195 -207 -379 -391 l-335 -334 -123 7 c-478 28 -1036
159 -1514 356 -82 34 -160 64 -172 67 -12 3 -82 -17 -160 -45 -583 -212 -1199
-331 -1699 -328 l-112 1 -341 354 c-294 304 -345 363 -375 422 -48 95 -61 166
-48 252 22 142 104 250 238 314 69 33 87 37 179 41 71 3 131 -1 199 -13 155
-28 306 -9 483 61 152 59 350 164 443 233 308 229 669 372 1000 395 100 7 303
-5 415 -25z m-4834 -222 c59 -31 98 -88 106 -154 l6 -52 38 19 c25 13 58 20
97 20 51 0 67 -5 108 -32 27 -19 62 -54 79 -82 39 -65 42 -157 7 -226 -31 -61
-280 -416 -290 -412 -17 5 -681 478 -682 485 0 8 206 301 258 364 70 87 185
116 273 70z m9411 -103 l50 -70 -164 -250 c-90 -137 -202 -306 -247 -376 -46
-71 -87 -128 -91 -128 -7 0 -100 133 -100 144 0 4 23 41 52 83 28 43 51 82 51
88 0 10 -181 275 -188 275 -2 0 -45 -11 -96 -25 -50 -13 -96 -22 -101 -19 -5
3 -29 35 -53 72 -31 47 -41 68 -32 73 6 3 64 19 127 34 99 23 638 154 695 168
38 9 48 2 97 -69z m-1367 -701 c-37 -164 -70 -301 -74 -305 -3 -4 -123 -32
-266 -63 l-260 -55 -325 -325 -325 -325 -80 0 -80 1 376 372 377 372 44 250
44 249 99 23 c437 99 530 119 533 112 2 -4 -27 -142 -63 -306z m-6645 212
c162 -37 298 -70 301 -73 4 -4 19 -77 34 -162 14 -85 33 -193 42 -240 l15 -85
327 -327 326 -328 -45 1 c-117 1 -89 -20 -476 362 l-192 189 -263 57 -264 56
-12 55 c-7 30 -19 87 -28 125 -8 39 -33 150 -55 248 -22 98 -40 183 -40 188 0
6 8 8 18 5 9 -3 150 -35 312 -71z m8460 -107 c140 -260 158 -296 175 -347 36
-108 0 -204 -99 -265 -34 -22 -64 -31 -106 -34 -74 -5 -117 9 -174 59 -46 41
-46 41 -46 15 0 -46 -34 -127 -112 -265 l-76 -133 -37 68 c-21 38 -44 78 -51
90 -11 18 -8 28 18 75 97 175 148 287 148 322 0 30 -28 105 -46 126 -2 2 -72
-33 -156 -79 -173 -93 -155 -94 -209 12 l-29 57 138 74 c75 41 180 97 232 125
52 28 156 84 230 125 74 41 137 75 140 76 3 0 30 -45 60 -101z m-10170 -247
c190 -88 346 -164 348 -169 4 -14 -57 -144 -65 -139 -27 17 -557 257 -560 254
-1 -2 83 -73 189 -158 105 -85 217 -176 249 -202 l58 -48 -16 -37 c-20 -49
-52 -112 -57 -112 -2 0 -49 9 -105 20 -209 42 -524 100 -527 97 -2 -2 123 -61
277 -133 155 -71 282 -132 284 -135 5 -8 -56 -139 -65 -139 -11 0 -744 340
-753 349 -10 10 92 231 107 231 11 0 37 -5 291 -50 66 -12 154 -28 195 -35 41
-7 76 -12 78 -10 2 2 -383 321 -436 360 -11 9 -3 32 42 128 l55 117 33 -15
c18 -7 188 -86 378 -174z m1794 -401 c110 -34 192 -100 449 -358 l238 -239 3
-494 c3 -513 10 -630 57 -969 94 -680 281 -1256 594 -1831 41 -75 75 -139 75
-142 0 -2 -233 -228 -517 -503 -285 -274 -567 -546 -626 -603 -185 -180 -251
-215 -407 -215 -86 0 -102 3 -162 31 -199 93 -286 309 -232 576 21 101 14 251
-15 357 -45 165 -176 443 -262 556 -208 274 -341 570 -394 879 -23 135 -20
392 6 545 53 316 183 619 414 965 128 193 163 259 205 383 47 143 64 275 54
416 -17 240 -7 340 49 454 38 79 125 162 199 191 72 27 184 28 272 1z m6456
-21 c79 -37 151 -106 192 -186 60 -115 72 -223 42 -382 -21 -111 -14 -275 17
-381 42 -146 180 -442 239 -515 69 -84 194 -285 250 -400 120 -246 169 -442
177 -709 15 -457 -121 -845 -478 -1376 -94 -139 -148 -254 -187 -399 -25 -93
-26 -104 -24 -360 2 -286 -4 -334 -55 -434 -34 -68 -112 -143 -181 -175 -50
-23 -69 -27 -152 -26 -109 0 -169 19 -266 83 -36 24 -286 266 -646 627 l-588
589 38 60 c21 33 70 119 110 191 320 584 500 1196 577 1959 32 323 42 920 19
1235 l-5 75 242 233 c312 300 353 325 529 319 76 -2 106 -8 150 -28z m2338
-264 c12 -39 20 -75 18 -81 -2 -6 -17 -14 -33 -18 -15 -4 -91 -27 -168 -51
-458 -143 -598 -185 -600 -183 -7 9 -45 134 -45 148 0 12 88 44 388 137 213
67 394 120 402 119 9 -1 24 -28 38 -71z m-10964 -318 c97 -36 169 -89 215
-158 49 -74 65 -139 58 -243 -18 -288 -242 -450 -526 -380 -266 65 -394 254
-337 497 36 154 118 252 249 299 76 27 246 20 341 -15z m3852 -4 c23 -56 63
-211 56 -218 -4 -3 1 -3 9 0 24 9 52 -29 46 -62 l-6 -28 14 30 c15 33 21 69 7
47 -6 -9 -15 -5 -35 16 -24 25 -26 33 -20 77 l6 48 32 -64 32 -63 12 52 c6 29
11 70 11 90 1 54 13 25 40 -93 16 -70 21 -118 18 -165 -5 -70 -40 -164 -67
-180 -12 -7 -12 -9 -2 -10 41 -1 54 -81 20 -124 -20 -26 -21 -26 -159 -26
-132 0 -140 1 -154 22 -9 12 -16 35 -16 50 0 31 19 78 31 78 5 0 -3 17 -17 38
-37 54 -46 80 -44 142 1 66 55 311 63 290 4 -8 15 -64 26 -125 32 -179 33
-182 42 -160 4 11 8 29 8 40 l0 20 -8 -20 c-7 -16 -10 -11 -16 27 -4 25 -4 57
0 70 8 22 8 22 16 3 4 -11 8 -33 9 -50 5 -71 19 54 19 168 1 64 3 117 6 117 3
0 12 -17 21 -37z m7095 -136 c122 -59 184 -144 216 -290 61 -289 -136 -500
-467 -499 -122 0 -188 23 -267 95 -163 149 -179 432 -34 589 86 94 214 139
386 135 96 -3 117 -6 166 -30z m-4480 -242 c24 -36 47 -65 51 -65 4 0 30 27
59 60 36 42 55 57 60 48 4 -7 15 -43 25 -80 15 -64 28 -79 50 -60 5 5 35 24
68 42 l59 33 -8 -87 c-8 -100 -12 -97 103 -72 34 7 62 10 62 6 0 -4 -13 -40
-30 -80 -16 -40 -30 -74 -30 -75 0 -2 38 -8 85 -15 93 -13 96 -18 40 -70 -15
-14 -36 -37 -47 -52 l-19 -28 75 -37 c41 -20 73 -40 70 -44 -2 -4 -33 -24 -69
-44 -36 -20 -65 -39 -65 -43 0 -4 25 -32 55 -62 30 -30 55 -57 55 -61 0 -4
-30 -12 -67 -18 -112 -19 -107 -12 -66 -96 21 -41 35 -76 32 -79 -2 -3 -39 0
-82 6 -42 6 -79 9 -81 7 -3 -2 0 -40 5 -83 4 -44 7 -82 4 -84 -2 -2 -34 13
-70 33 -37 20 -72 34 -78 32 -7 -2 -18 -35 -25 -73 -7 -38 -17 -72 -21 -77 -4
-4 -34 20 -66 54 -33 34 -61 58 -62 53 -2 -5 -23 -40 -47 -77 l-43 -68 -36 81
-37 82 -32 -27 c-77 -62 -99 -78 -102 -74 -3 2 -9 37 -14 77 -6 41 -13 76 -16
79 -3 3 -37 -7 -76 -22 -39 -15 -74 -25 -77 -22 -2 3 2 37 11 76 9 38 16 75
16 82 0 8 -23 10 -85 5 -47 -4 -85 -3 -85 1 0 4 21 40 45 78 l45 70 -80 25
c-44 13 -80 27 -80 31 0 4 27 29 60 56 33 26 60 51 60 55 0 4 -30 28 -66 54
-36 26 -62 50 -57 54 4 4 28 14 53 23 25 9 58 21 73 27 l28 10 -41 60 c-63 93
-64 89 33 92 l84 3 -23 80 c-12 44 -21 81 -19 83 2 2 38 -8 82 -21 l78 -25 9
81 c5 45 10 84 12 86 2 2 28 -15 59 -38 30 -23 61 -44 68 -47 10 -3 23 18 43
71 16 41 31 75 35 75 3 0 26 -29 50 -65z m-2493 -417 l3 -107 -28 -4 -28 -4
30 -2 c61 -3 133 -79 184 -194 50 -110 50 -106 -26 -207 -18 -24 -33 -47 -33
-53 0 -5 21 20 48 56 26 36 52 66 57 67 6 0 31 -21 55 -46 42 -43 360 -332
495 -451 l60 -52 -277 -1 -276 0 -57 93 c-32 50 -79 126 -105 167 l-47 76 24
17 c13 10 23 26 22 35 0 13 -2 12 -9 -5 -13 -31 -36 -40 -120 -42 -120 -3
-184 14 -115 32 11 3 -3 3 -30 0 -40 -4 -54 -1 -65 12 -12 15 -11 19 10 36 19
14 44 19 100 21 l75 2 -72 3 c-42 2 -82 -1 -94 -7 -16 -9 -24 -8 -40 6 -24 21
-25 60 -1 73 9 5 76 11 147 12 l130 3 0 -29 c0 -25 -6 -32 -35 -43 l-35 -12
38 5 c27 4 37 2 37 -8 0 -17 -21 -43 -40 -50 -12 -4 -11 -6 2 -6 29 -2 46 39
44 99 -1 37 3 61 13 73 12 15 13 24 4 48 -7 17 -10 36 -7 44 3 7 -6 22 -20 33
-14 11 -26 27 -26 35 0 8 -7 20 -15 27 -11 9 -12 17 -4 32 17 32 6 27 -26 -11
-16 -20 -22 -30 -12 -22 14 11 20 11 32 1 28 -24 17 -40 -27 -41 -43 -2 -43
-2 9 -8 61 -8 93 -31 74 -55 -17 -20 -174 -13 -261 12 -54 15 -67 24 -75 46
-19 56 30 83 88 48 51 -32 107 -44 123 -27 12 12 9 13 -19 8 -34 -5 -107 19
-107 35 0 6 17 13 38 18 22 4 30 9 20 11 -16 4 -18 18 -18 121 0 64 3 134 6
155 l7 38 86 -3 86 -3 3 -107z m-4043 -189 c56 -26 110 -86 124 -136 6 -22 11
-145 11 -297 l0 -259 -227 6 c-124 4 -314 7 -420 7 l-195 0 4 253 c3 235 5
255 25 292 61 115 180 153 288 92 22 -13 49 -36 60 -53 l20 -30 30 50 c55 92
175 124 280 75z m10759 -146 c2 -10 8 -48 11 -84 l7 -66 -28 -6 c-110 -23
-165 -152 -115 -264 24 -53 58 -75 107 -71 53 4 75 41 110 183 34 139 74 218
133 260 39 28 50 30 126 30 77 0 87 -2 127 -30 28 -21 53 -50 73 -90 27 -52
30 -70 33 -161 7 -204 -58 -304 -219 -338 -25 -6 -26 -4 -33 56 -11 105 -11
105 39 127 34 15 49 29 60 55 30 72 12 191 -33 215 -62 33 -99 -9 -135 -152
-36 -144 -63 -212 -101 -254 -71 -82 -208 -102 -307 -46 -95 54 -139 150 -139
308 0 180 61 280 201 329 58 20 77 20 83 -1z m-6767 -40 c60 1 78 -2 86 -14
30 -48 -30 -69 -192 -69 -93 0 -118 3 -133 17 -22 20 -23 60 -3 83 15 16 20
16 91 -1 44 -10 107 -17 151 -16z m27 -336 c-3 -23 -12 -78 -21 -122 -22 -117
-40 -142 -61 -87 -16 40 -42 178 -42 221 l0 36 65 -3 65 -4 -6 -41z m3610
-364 c-9 -52 -90 -374 -112 -448 l-18 -60 -2131 -3 -2131 -2 -27 87 c-33 107
-60 210 -86 333 -11 52 -23 103 -25 113 -5 16 108 17 2266 17 l2271 0 -7 -37z
m-3004 -905 c0 -39 33 -114 63 -146 40 -43 111 -72 176 -72 50 0 71 6 133 39
128 69 202 86 363 85 124 0 149 -4 220 -27 44 -15 107 -42 140 -60 57 -30 60
-34 69 -80 17 -97 -37 -230 -119 -293 -51 -38 -236 -104 -295 -104 -48 0 -287
67 -347 98 -18 9 -46 29 -63 45 -27 25 -30 34 -30 88 0 37 -6 69 -15 83 -9 13
-19 43 -24 67 l-9 44 -1 -40 c-1 -23 8 -58 19 -80 14 -27 18 -49 14 -75 -4
-24 -1 -47 10 -67 19 -37 95 -89 150 -104 23 -5 83 -24 134 -40 134 -44 190
-44 325 5 125 45 184 91 232 178 26 47 30 63 30 143 l0 90 81 16 c158 32 234
99 220 193 l-7 40 25 -23 c73 -69 53 -204 -45 -302 -46 -46 -143 -95 -206
-105 -76 -11 -54 -19 55 -19 92 0 113 -3 150 -23 74 -40 152 -122 152 -160 0
-6 -20 -16 -45 -23 -52 -15 -56 -23 -17 -37 25 -10 23 -10 -20 -11 -52 -1 -58
-6 -30 -27 15 -12 9 -13 -40 -8 -48 6 -57 4 -60 -11 -2 -14 -11 -11 -50 20
l-48 36 0 -31 c0 -16 -2 -30 -5 -30 -17 0 -85 55 -85 69 0 9 -3 39 -6 67 -6
51 -6 51 26 62 61 22 151 25 224 8 72 -17 99 -15 50 5 -53 21 -204 23 -268 5
l-58 -17 7 -41 c14 -80 7 -154 -24 -273 -52 -197 -126 -415 -140 -415 -5 0
-19 24 -32 53 -20 43 -24 68 -24 150 0 98 -7 123 -19 66 -18 -93 5 -191 67
-288 74 -114 60 -224 -36 -290 l-43 -29 -54 15 c-65 17 -183 12 -247 -10 -24
-8 -43 -12 -43 -8 0 3 -22 14 -49 24 -118 42 -150 164 -71 273 50 70 82 150
88 219 5 68 -4 155 -17 155 -4 0 -4 -26 2 -57 12 -71 -2 -155 -39 -231 l-27
-55 -23 45 c-13 25 -31 85 -41 134 -13 68 -25 98 -49 129 -71 90 -86 151 -78
311 l7 121 -53 18 c-58 19 -181 17 -234 -4 -47 -19 -23 -23 40 -6 73 19 107
19 172 0 l52 -16 0 -62 c0 -61 -1 -63 -34 -81 -28 -15 -37 -16 -54 -5 -19 12
-29 10 -79 -15 -36 -17 -59 -24 -61 -17 -2 6 -18 11 -35 11 l-32 1 24 13 c24
13 23 14 -28 31 -50 16 -52 18 -35 36 17 18 16 19 -21 19 -36 0 -37 1 -30 28
33 132 164 204 281 153 27 -12 61 -34 77 -48 l27 -27 0 41 0 41 -87 48 c-118
66 -223 169 -247 241 -10 30 -15 62 -11 75 8 24 63 88 77 88 4 0 8 -15 8 -32z
m247 -744 c4 -80 33 -154 93 -234 17 -23 31 -60 39 -105 7 -38 24 -99 38 -133
25 -63 25 -64 7 -98 -10 -19 -22 -34 -25 -34 -4 0 -5 -8 -2 -18 4 -16 -1 -19
-24 -17 -15 1 -27 6 -26 12 1 5 -4 10 -12 10 -15 0 -10 -46 7 -62 7 -7 8 -2 3
15 -5 19 -4 21 4 10 9 -12 11 -13 11 -1 0 8 3 12 6 9 3 -4 1 -15 -5 -26 -7
-13 -7 -23 2 -33 7 -7 0 -3 -15 10 -16 14 -28 31 -28 38 0 8 -5 11 -10 8 -18
-11 -29 38 -13 57 10 11 11 18 3 23 -6 3 -9 2 -8 -3 2 -6 -1 -9 -7 -8 -5 0 -9
5 -7 9 1 5 -2 6 -8 2 -8 -5 -7 -11 1 -21 8 -9 8 -14 1 -14 -6 0 -16 8 -21 18
-6 10 -11 12 -11 4 0 -7 -5 -10 -10 -7 -6 4 -7 12 -3 18 11 18 12 36 3 42 -5
3 -7 -3 -5 -15 2 -11 -1 -22 -6 -25 -5 -4 -7 -11 -4 -16 4 -5 1 -9 -4 -9 -6 0
-11 8 -11 18 0 15 -2 15 -11 2 -8 -12 -9 -11 -6 5 2 11 8 19 13 18 6 -1 11 5
11 13 0 11 -4 11 -19 -3 -28 -25 -47 -25 -40 0 3 13 1 18 -6 13 -6 -3 -13 -2
-17 4 -4 6 -11 8 -16 4 -5 -3 -8 0 -7 8 2 7 -2 12 -9 11 -7 -2 -10 7 -7 21 4
24 -8 29 -33 13 -6 -4 -15 -3 -18 3 -4 6 -1 9 7 8 10 -2 12 10 10 51 -3 58 6
68 10 12 1 -18 6 -35 10 -37 5 -3 5 -10 2 -16 -4 -6 -2 -8 4 -5 11 7 10 20 -3
50 -4 9 -5 26 -2 37 3 11 1 18 -3 15 -5 -3 -11 -1 -15 5 -12 20 -20 1 -19 -49
0 -27 -3 -48 -7 -46 -4 3 -5 19 -2 36 2 17 1 38 -3 47 -12 28 -13 42 -3 42 5
0 9 -6 10 -12 0 -10 2 -10 6 0 4 10 8 10 21 0 15 -12 16 -11 3 5 -7 9 -10 17
-6 17 4 0 2 7 -5 15 -13 16 -6 50 8 41 5 -3 9 1 9 9 0 11 -4 12 -14 4 -9 -8
-13 -8 -13 -1 0 6 5 14 10 17 6 4 8 10 5 15 -3 5 -1 11 4 15 6 3 7 13 4 22 -4
9 -2 14 3 10 6 -3 10 3 11 13 2 25 -15 36 -30 21 -9 -9 -8 -11 6 -6 10 4 17 2
17 -4 0 -6 -3 -10 -7 -10 -19 3 -23 -2 -13 -20 6 -12 6 -22 1 -26 -5 -3 -11 5
-14 17 -2 13 -3 -14 -2 -59 1 -81 1 -82 -20 -69 -11 7 -19 17 -18 22 1 5 -3
14 -8 21 -7 7 -6 14 1 18 6 4 10 3 9 -2 -1 -4 0 -11 1 -15 1 -5 3 -13 4 -20 0
-6 7 -13 14 -16 9 -3 10 3 4 20 -10 28 -7 105 5 121 8 11 10 33 3 40 -7 6 -6
46 1 41 4 -2 5 -12 2 -22 -6 -15 -5 -16 12 -2 11 9 16 10 11 3 -4 -8 -2 -13 8
-13 8 0 18 5 21 10 4 6 10 8 15 5 4 -3 6 4 3 15 -3 12 0 20 6 20 7 0 10 -4 7
-8 -3 -5 1 -9 8 -9 15 0 15 14 2 35 -4 7 -5 16 -2 19 3 3 1 11 -4 18 -7 8 -5
12 5 12 8 0 12 -3 10 -7 -2 -3 5 -12 16 -18 18 -12 19 -11 10 6 -6 11 -6 24 0
33 7 11 9 11 9 0 0 -9 8 -12 25 -9 14 3 25 0 26 -6 0 -6 4 -1 9 12 5 12 11 22
12 22 2 0 4 -21 5 -46z m995 17 c3 -1 20 -15 38 -32 17 -17 30 -27 29 -23 -1
5 -1 18 0 29 2 16 5 15 17 -10 8 -16 12 -22 9 -12 -2 9 0 17 5 17 6 0 10 -5
10 -11 0 -6 8 -8 19 -4 11 3 23 0 27 -6 4 -8 3 -9 -4 -5 -17 10 -9 -72 8 -87
10 -9 11 -9 5 2 -12 20 -15 78 -4 60 5 -8 9 -10 9 -5 0 5 7 3 15 -4 8 -7 15
-9 15 -5 0 4 6 2 13 -4 8 -6 17 -7 22 -3 4 4 1 -3 -6 -15 -10 -17 -11 -27 -3
-40 6 -10 8 -27 4 -38 -4 -11 -4 -27 0 -35 4 -8 6 -30 4 -48 -1 -18 1 -30 6
-27 5 3 12 0 16 -6 5 -8 3 -9 -6 -4 -8 5 -11 3 -8 -6 3 -8 10 -13 15 -12 5 1
10 -5 10 -13 0 -9 -4 -11 -10 -5 -5 5 -17 7 -26 4 -14 -4 -14 -3 -1 6 9 6 10
11 3 11 -7 0 -10 17 -9 46 1 25 -4 53 -11 64 -8 11 -11 35 -8 61 3 34 2 38 -4
19 -9 -24 -9 -24 -11 -2 -4 38 -5 40 -14 49 -5 4 -5 -7 0 -27 4 -19 9 -51 10
-70 1 -19 3 -39 3 -45 1 -5 6 -3 11 5 6 10 10 11 10 3 0 -24 -2 -28 -13 -25
-7 2 -7 -1 0 -10 18 -22 20 -63 3 -60 -11 3 -10 -1 3 -16 12 -13 15 -22 8 -27
-6 -3 -11 0 -11 7 -1 9 -3 9 -9 -2 -5 -8 -7 -28 -4 -44 l6 -29 11 33 c11 33
43 51 43 24 0 -10 -4 -11 -14 -3 -14 13 -16 9 -7 -15 3 -9 11 -13 18 -9 6 4 5
-1 -3 -10 -14 -17 -26 -24 -17 -9 2 4 1 14 -5 22 -7 12 -9 10 -10 -7 -1 -13
-2 -30 -3 -38 0 -8 4 -14 9 -12 6 1 9 6 7 10 -1 5 2 6 8 2 8 -5 7 -11 -1 -21
-9 -11 -15 -11 -25 -3 -10 8 -14 8 -14 1 0 -6 5 -14 11 -17 7 -5 5 -13 -5 -24
-11 -12 -13 -20 -5 -28 8 -8 8 -13 0 -18 -6 -3 -11 -3 -10 2 1 4 0 11 -1 16
-1 4 -3 12 -4 17 0 6 -5 9 -11 8 -5 -2 -9 -7 -7 -11 1 -5 -2 -6 -7 -3 -5 3
-12 -1 -15 -10 -5 -13 -9 -14 -21 -4 -8 7 -12 17 -8 23 3 6 1 7 -5 3 -9 -5 -7
-15 6 -34 9 -14 11 -23 5 -19 -7 5 -14 3 -14 -2 -1 -6 -2 -17 -3 -23 -1 -7 -8
-12 -15 -10 -8 2 -11 -3 -8 -12 4 -9 2 -18 -4 -21 -5 -4 -9 -3 -8 2 3 19 -2
34 -10 29 -5 -4 -11 -2 -13 3 -1 5 -10 2 -18 -7 -13 -14 -12 -15 3 -9 23 9 30
-8 10 -24 -9 -8 -14 -9 -10 -3 4 7 0 15 -9 18 -12 5 -14 1 -9 -17 5 -19 4 -20
-5 -5 -8 13 -8 24 2 40 14 26 20 53 10 43 -4 -4 -7 -11 -7 -16 0 -5 -4 -9 -10
-8 -5 1 -8 6 -7 12 2 7 0 8 -5 4 -4 -5 -8 -12 -8 -15 -2 -21 -18 -52 -25 -47
-4 3 -13 -2 -20 -10 -12 -15 -35 -11 -26 4 3 4 -1 8 -9 8 -8 0 -11 -5 -7 -11
10 -16 10 -56 0 -50 -4 3 -8 -1 -8 -8 -1 -21 -30 23 -31 46 0 21 -1 21 -10 1
-7 -16 -9 -14 -6 12 2 18 1 31 -1 28 -3 -2 -13 12 -23 32 -14 27 -16 40 -8 55
17 31 109 311 109 331 0 11 4 15 12 11 6 -4 8 -3 5 3 -4 6 3 51 15 101 17 68
26 89 38 87 8 -2 18 -4 22 -4z m103 -11 c3 -5 1 -10 -4 -10 -6 0 -11 5 -11 10
0 6 2 10 4 10 3 0 8 -4 11 -10z m-1344 -33 c-10 -9 -11 -8 -5 6 3 10 9 15 12
12 3 -3 0 -11 -7 -18z m63 16 c-5 -5 -12 -12 -16 -18 -4 -6 -8 -2 -8 8 0 9 7
17 17 17 9 0 12 -3 7 -7z m43 -5 c-2 -7 3 -19 12 -26 14 -11 14 -11 -1 -6 -13
4 -21 -1 -28 -20 -5 -14 -12 -26 -15 -26 -2 0 -1 10 4 23 5 12 10 27 11 32 5
20 12 35 17 35 3 0 3 -6 0 -12z m-991 -73 l26 -46 -533 -527 c-294 -290 -651
-642 -794 -784 l-259 -256 -37 31 c-21 18 -38 35 -38 39 -1 3 189 195 421 425
233 230 592 586 798 790 206 205 378 373 382 373 4 0 19 -20 34 -45z m3511
-275 c158 -157 504 -499 768 -759 l479 -474 -39 -33 c-22 -19 -43 -33 -47 -31
-4 1 -144 137 -310 302 -167 165 -507 501 -755 748 -249 246 -453 450 -453
455 0 14 52 83 60 80 5 -2 139 -131 297 -288z m-1137 255 c-10 -12 -10 -18 1
-32 12 -17 12 -17 -6 -1 -15 14 -16 20 -5 32 7 9 15 16 17 16 3 0 0 -7 -7 -15z
m-1474 -20 c1 -8 -1 -17 -5 -19 -4 -3 -7 6 -7 19 0 25 8 25 12 0z m-33 -27
c-12 -17 -10 -44 3 -41 6 1 11 -5 11 -13 0 -12 -3 -12 -18 2 -9 8 -16 21 -15
27 2 15 16 37 23 37 3 0 1 -6 -4 -12z m1538 -1 c-6 -8 -8 -17 -4 -20 3 -4 12
-2 20 4 22 19 15 3 -9 -17 -12 -10 -18 -14 -15 -7 4 6 3 15 -3 18 -10 6 4 35
17 35 3 0 0 -6 -6 -13z m-25 -38 c1 -5 3 -10 4 -11 5 -6 6 -77 1 -72 -3 3 -7
19 -7 35 -1 16 -2 30 -4 32 -5 7 -7 38 -2 32 4 -4 8 -11 8 -16z m54 -3 c0 -2
-8 -10 -17 -17 -16 -13 -17 -12 -4 4 13 16 21 21 21 13z m-1579 -23 c13 -16
12 -17 -3 -4 -10 7 -18 15 -18 17 0 8 8 3 21 -13z m-649 -111 c259 -349 590
-701 968 -1027 192 -165 378 -315 392 -315 12 0 217 156 393 299 404 329 788
708 1053 1041 42 52 76 96 77 98 3 3 129 -127 715 -733 370 -382 385 -399 417
-465 125 -256 -8 -529 -289 -595 -80 -19 -153 -19 -251 0 -155 30 -305 17
-473 -40 -117 -40 -381 -170 -444 -219 -296 -230 -634 -377 -960 -416 -186
-22 -406 -9 -597 36 -286 66 -540 184 -863 399 -333 221 -473 262 -855 250
-181 -6 -219 -5 -275 10 -145 38 -239 108 -290 217 -54 114 -49 231 17 368 35
72 62 100 602 643 311 312 568 567 571 566 3 0 44 -53 92 -117z m675 13 c0 -8
-4 -12 -9 -9 -5 3 -6 10 -3 15 9 13 12 11 12 -6z m1500 -100 c0 -8 -4 -12 -9
-9 -5 3 -6 10 -3 15 9 13 12 11 12 -6z m-276 -193 c-7 -13 -7 -22 0 -29 8 -8
7 -13 -2 -18 -7 -5 -10 -4 -5 3 3 6 2 13 -4 17 -10 6 -15 -9 -10 -30 1 -5 -2
-7 -6 -2 -4 4 -17 -1 -28 -10 -12 -10 -18 -14 -14 -9 4 5 3 18 -3 29 -7 11 -7
17 -1 13 5 -3 15 1 22 9 7 8 16 12 21 9 5 -3 14 6 21 20 6 15 13 24 15 22 3
-2 0 -13 -6 -24z m-1051 12 c0 -8 -19 -13 -24 -6 -3 5 1 9 9 9 8 0 15 -2 15
-3z m91 -9 c9 -6 18 -20 21 -33 4 -12 2 -20 -3 -16 -5 3 -9 12 -9 20 0 8 -5
12 -10 9 -6 -4 -7 -12 -4 -18 4 -7 3 -8 -2 -4 -5 5 -9 14 -9 20 0 7 -6 13 -12
13 -22 2 -24 4 -19 13 7 11 25 9 47 -4z m126 -64 c0 -11 -5 -18 -9 -15 -4 3
-5 11 -1 19 7 21 12 19 10 -4z m719 -58 c-2 -3 -7 5 -11 18 -6 17 -9 19 -17 8
-8 -11 -8 -10 -4 4 3 10 6 24 6 30 1 7 7 -3 16 -22 8 -19 12 -36 10 -38z
m-233 -122 c21 -5 41 -12 44 -14 10 -11 -33 -60 -64 -73 -39 -17 -140 -18
-180 -3 -28 10 -83 57 -83 70 0 22 210 37 283 20z m-2105 -2072 c23 -7 46 -19
51 -28 5 -9 28 -88 51 -176 23 -88 45 -165 49 -171 3 -7 61 41 141 117 74 71
141 129 148 129 19 0 155 -41 165 -50 4 -4 -88 -93 -205 -198 l-214 -191 -48
-169 -48 -170 -71 19 c-39 11 -76 23 -82 27 -9 5 2 54 37 172 48 163 48 166
34 215 -8 28 -44 152 -80 276 -36 124 -66 228 -66 232 0 3 21 -1 48 -9 26 -8
66 -19 90 -25z m3452 -399 c51 -179 93 -326 95 -328 1 -1 88 23 194 53 106 30
198 55 205 55 8 0 20 -26 30 -66 9 -37 16 -67 14 -68 -2 -1 -130 -38 -285 -82
l-283 -80 -10 30 c-40 124 -219 770 -214 775 10 11 149 48 155 42 4 -3 48
-152 99 -331z m-516 -43 c93 -166 194 -344 223 -396 30 -51 52 -95 51 -97 -5
-4 -179 -26 -182 -23 -1 2 -24 43 -50 91 l-47 88 -42 -6 c-23 -3 -98 -13 -167
-22 l-125 -17 -23 -101 -23 -100 -87 -11 c-48 -6 -88 -10 -89 -9 -3 2 24 111
161 671 l52 210 85 11 c46 6 86 12 89 13 3 0 81 -135 174 -302z m-1744 234
c73 -30 125 -70 171 -132 50 -65 72 -142 72 -244 0 -319 -190 -506 -473 -465
-148 21 -253 95 -314 220 -29 61 -31 72 -31 180 0 183 48 301 157 393 73 62
132 78 258 74 78 -3 119 -10 160 -26z m945 -32 c98 -52 130 -109 130 -234 0
-74 -4 -98 -22 -131 -25 -48 -73 -91 -123 -112 -27 -11 -202 -30 -304 -32 -18
0 -18 -9 -15 -157 l4 -158 -82 -3 -81 -3 -6 38 c-3 21 -8 212 -12 426 l-6 387
238 0 c224 0 242 -1 279 -21z"/>
<path d="M8726 13228 c-56 -15 -119 -81 -146 -153 -32 -86 -34 -233 -3 -291
20 -37 93 -113 111 -114 4 -1 27 -5 52 -10 69 -13 135 5 185 51 106 98 135
327 55 437 -50 69 -164 105 -254 80z"/>
<path d="M5570 12731 c-65 -20 -131 -73 -161 -131 -7 -14 -13 -55 -12 -93 0
-57 6 -79 36 -140 69 -140 142 -197 253 -197 112 0 209 85 221 194 10 85 -53
230 -134 308 -58 56 -136 79 -203 59z"/>
<path d="M4635 12159 c-58 -39 -108 -76 -111 -81 -3 -5 20 -47 52 -94 l58 -84
25 17 c96 61 194 139 207 165 32 63 -21 148 -92 148 -25 0 -60 -18 -139 -71z"/>
<path d="M7597 10320 c-10 -16 -38 -41 -62 -56 -41 -24 -45 -29 -45 -65 l0
-39 39 20 c22 11 42 24 46 30 19 31 25 -3 25 -140 l0 -150 40 0 40 0 0 215 0
215 -33 0 c-26 0 -36 -6 -50 -30z"/>
<path d="M7873 10336 c-48 -22 -73 -69 -73 -138 0 -50 4 -62 31 -92 38 -43 87
-56 134 -33 l32 15 -7 -39 c-4 -21 -13 -45 -20 -54 -18 -21 -58 -19 -72 5 -9
14 -24 20 -50 20 -42 0 -46 -10 -26 -55 25 -54 121 -73 182 -36 54 34 70 74
74 188 4 89 1 108 -17 145 -12 24 -33 51 -47 62 -34 25 -101 30 -141 12z m96
-82 c38 -48 16 -134 -34 -134 -29 0 -55 38 -55 82 0 73 50 102 89 52z"/>
<path d="M8551 10216 c-78 -115 -91 -141 -91 -175 l0 -41 85 0 85 0 0 -40 0
-40 40 0 40 0 0 40 c0 36 3 40 25 40 23 0 25 4 25 40 0 22 -3 39 -7 39 -42 -7
-43 -4 -43 136 l0 135 -34 0 c-32 0 -38 -6 -125 -134z m67 -137 c-18 -12 -74
-3 -70 10 1 7 19 37 40 68 l37 56 3 -63 c2 -44 -1 -66 -10 -71z"/>
<path d="M8140 10300 l0 -40 92 0 c86 0 90 -1 76 -17 -46 -55 -98 -187 -112
-285 -5 -39 4 -45 54 -38 20 3 17 -5 35 83 19 95 44 153 96 229 21 32 39 69
39 83 l0 25 -140 0 -140 0 0 -40z"/>
<path d="M3321 10893 c-27 -23 -160 -206 -155 -214 2 -3 37 -29 78 -58 l75
-52 55 78 c77 107 99 156 91 193 -13 59 -98 90 -144 53z"/>
<path d="M3633 10726 c-46 -21 -205 -229 -187 -246 5 -4 45 -33 88 -65 93 -66
78 -72 180 78 79 117 86 158 37 208 -16 16 -36 29 -44 29 -9 0 -21 2 -29 5 -7
2 -27 -2 -45 -9z"/>
<path d="M12555 10801 c-90 -24 -139 -42 -137 -50 4 -17 112 -171 120 -171 4
1 47 59 95 130 48 72 82 130 75 129 -7 0 -76 -18 -153 -38z"/>
<path d="M13143 10189 l-92 -50 36 -67 c60 -110 101 -170 127 -188 34 -22 85
-12 120 23 46 46 44 65 -18 188 -81 161 -65 152 -173 94z"/>
<path d="M4970 8185 c0 -35 -1 -36 -32 -35 -50 3 -58 1 -58 -14 0 -8 -29 -28
-65 -44 -116 -55 -194 -157 -214 -282 -12 -70 -19 -85 -28 -52 -6 24 -43 31
-43 8 0 -8 -4 -16 -9 -18 -5 -1 -11 -12 -13 -23 -3 -20 3 -20 460 -23 l462 -2
0 25 c0 16 -6 25 -15 25 -8 0 -15 7 -15 15 0 8 -9 15 -20 15 -13 0 -18 -5 -14
-15 4 -9 0 -15 -9 -15 -10 0 -16 16 -20 52 -15 120 -120 257 -228 295 -34 12
-49 23 -49 35 0 10 -6 18 -13 18 -7 0 -17 10 -22 22 -6 11 -20 28 -32 36 -22
14 -23 13 -23 -23z m-184 -255 c-15 -33 -31 -88 -35 -123 -5 -34 -9 -55 -10
-46 -2 29 -31 31 -41 4 -12 -33 -18 -32 -13 3 14 99 28 152 49 193 26 52 42
63 63 43 12 -11 10 -22 -13 -74z m206 58 c3 -20 3 -142 -1 -212 -1 -17 -8 -25
-26 -28 l-25 -5 0 133 0 134 24 0 c17 0 25 -7 28 -22z m193 -1 c22 -35 55
-136 55 -172 0 -26 -4 -31 -24 -31 -20 0 -26 6 -31 36 -10 51 -36 129 -46 136
-5 3 -9 16 -9 30 0 32 34 33 55 1z"/>
<path d="M4960 7660 c-4 -3 -77 -5 -162 -4 l-153 0 3 -97 3 -98 -38 -10 c-21
-6 -43 -11 -50 -11 -40 0 -113 -23 -113 -36 0 -8 2 -14 4 -14 5 0 139 27 174
35 15 4 22 1 22 -10 0 -8 -2 -15 -4 -15 -2 0 -40 -7 -83 -15 -101 -19 -133
-33 -133 -56 0 -14 -7 -19 -30 -19 -29 0 -30 -1 -30 -50 0 -49 1 -50 30 -50
20 0 30 -5 30 -15 0 -8 5 -15 10 -15 6 0 10 -17 10 -38 l0 -38 100 -19 100
-19 0 -388 0 -388 -65 0 c-57 0 -69 -3 -96 -28 -27 -24 -32 -36 -36 -95 l-6
-67 517 0 516 0 0 66 c0 59 -3 68 -29 95 -27 27 -35 29 -100 29 l-71 0 2 387
3 387 98 20 97 20 0 38 c0 27 4 38 15 38 8 0 15 7 15 15 0 9 9 15 25 15 23 0
25 3 25 50 0 47 -2 50 -25 50 -18 0 -25 5 -25 20 0 11 -7 20 -15 20 -10 0 -15
10 -15 34 0 36 -6 39 -130 61 -74 13 -70 7 -70 111 l0 94 77 0 c42 0 73 3 69
8 -8 8 -453 10 -466 2z m10 -210 c0 -13 -11 -19 -38 -24 -22 -3 -51 -15 -66
-27 -30 -24 -66 -88 -66 -119 0 -15 -6 -20 -26 -20 -24 0 -25 2 -19 33 20 90
79 153 165 177 33 9 50 2 50 -20z m-420 -1220 c0 -28 -3 -30 -35 -30 -34 0
-35 1 -24 23 25 46 59 50 59 7z"/>
<path d="M4518 7653 c7 -3 16 -2 19 1 4 3 -2 6 -13 5 -11 0 -14 -3 -6 -6z"/>
<path d="M11075 7836 c-15 -22 -14 -29 9 -90 19 -49 22 -68 13 -71 -7 -2 -83
-22 -170 -44 l-159 -39 -15 36 c-8 21 -22 53 -29 72 -24 56 -62 67 -89 26 -15
-23 -10 -40 124 -392 77 -203 168 -447 204 -541 l65 -173 -41 -47 c-23 -27
-93 -104 -156 -172 l-114 -124 34 -28 34 -29 52 58 c29 31 90 101 135 154 46
53 86 94 90 90 3 -4 30 -70 58 -147 29 -77 67 -179 86 -227 19 -49 34 -92 34
-96 0 -17 37 -42 63 -42 40 0 45 37 14 120 l-25 69 51 15 c107 30 284 76 294
76 6 0 21 -27 33 -61 26 -68 53 -89 89 -70 12 7 21 21 21 35 0 13 -41 129 -90
257 -50 129 -122 316 -161 415 l-70 182 97 138 c53 77 103 147 112 157 32 36
110 16 203 -55 61 -47 74 -54 64 -37 -110 187 -240 323 -372 392 l-62 32 -42
-40 c-41 -40 -78 -104 -79 -137 0 -15 10 -18 63 -18 68 0 97 -17 97 -56 0 -20
-118 -270 -124 -263 -2 2 -24 58 -49 124 -149 391 -217 559 -229 566 -23 15
-47 10 -63 -15z m83 -281 c7 -14 12 -32 12 -39 0 -16 -329 -102 -340 -89 -4 4
-12 23 -18 40 -10 31 -9 33 16 39 15 4 83 21 152 39 155 41 164 42 178 10z
m70 -178 c17 -48 15 -54 -15 -59 -16 -3 -88 -22 -162 -42 -73 -21 -138 -35
-145 -33 -11 4 -41 75 -34 82 4 5 310 83 328 84 9 1 21 -13 28 -32z m74 -194
c9 -26 15 -49 13 -52 -11 -10 -339 -81 -345 -74 -9 10 -33 83 -28 87 8 6 305
85 323 85 15 1 24 -11 37 -46z m73 -189 c8 -20 15 -40 15 -44 0 -7 -314 -90
-339 -90 -10 0 -47 88 -40 94 7 8 293 74 321 75 23 1 30 -6 43 -35z m69 -177
c33 -79 45 -69 -149 -117 -97 -23 -177 -41 -178 -39 -1 2 -10 26 -19 52 -14
39 -15 49 -4 53 15 6 317 83 328 83 4 1 14 -14 22 -32z m80 -208 c9 -23 16
-43 14 -44 -10 -10 -344 -93 -349 -87 -10 10 -32 83 -27 87 4 5 314 82 334 84
7 1 19 -18 28 -40z m69 -181 c9 -23 16 -42 14 -43 -3 -2 -331 -87 -341 -89
-11 -1 -41 72 -34 80 6 5 314 91 334 93 6 1 18 -18 27 -41z"/>
<path d="M2485 8955 c-80 -31 -134 -109 -142 -204 -4 -47 0 -64 24 -111 50
-98 149 -145 308 -145 94 0 103 2 145 30 31 21 54 47 73 84 70 139 3 277 -161
331 -87 28 -194 35 -247 15z"/>
<path d="M6712 8775 c-1 -55 0 -58 13 -41 8 11 15 25 15 30 0 6 -4 4 -9 -4 -7
-10 -11 -1 -14 30 -3 39 -4 37 -5 -15z"/>
<path d="M13497 8820 c-169 -30 -257 -112 -257 -238 0 -136 104 -232 249 -232
58 0 161 24 209 49 111 57 152 182 98 296 -13 28 -34 60 -47 72 -53 48 -157
70 -252 53z"/>
<path d="M9175 8526 c-123 -42 -209 -116 -260 -221 -27 -55 -30 -69 -30 -170
0 -105 1 -113 34 -177 41 -82 119 -159 198 -196 52 -24 70 -26 168 -27 99 0
116 3 167 27 67 31 149 105 185 165 67 114 71 268 10 393 -33 68 -132 160
-203 189 -73 30 -208 38 -269 17z m218 -106 c118 -44 187 -141 195 -272 4 -73
2 -83 -27 -143 -57 -114 -150 -173 -277 -174 -252 -2 -394 292 -239 495 77
101 224 140 348 94z"/>
<path d="M6654 8148 l-29 -33 33 29 c30 28 37 36 29 36 -2 0 -16 -15 -33 -32z"/>
<path d="M6663 7693 c9 -2 23 -2 30 0 6 3 -1 5 -18 5 -16 0 -22 -2 -12 -5z"/>
<path d="M2570 7957 c-54 -18 -68 -57 -72 -213 l-4 -131 105 -6 c57 -3 108 -4
113 -1 11 7 10 267 -2 298 -18 48 -82 72 -140 53z"/>
<path d="M2209 7925 c-39 -21 -49 -63 -49 -196 l0 -119 95 0 95 0 0 134 c0
126 -2 137 -22 161 -28 32 -83 41 -119 20z"/>
<path d="M9070 7103 c0 -60 3 -138 7 -175 l6 -68 133 0 c83 0 135 4 139 11 4
6 4 26 1 45 l-7 34 -78 0 -78 0 -7 38 c-3 20 -6 79 -6 130 l0 92 -55 0 -55 0
0 -107z"/>
<path d="M8616 7191 c-16 -6 -78 -163 -130 -328 -7 -22 -5 -23 49 -23 54 0 56
1 62 30 5 30 6 30 69 30 60 0 64 -2 70 -25 6 -23 11 -25 65 -25 l59 0 -19 48
c-130 327 -116 302 -165 301 -23 0 -49 -4 -60 -8z m78 -188 c7 -21 4 -23 -29
-23 -34 0 -35 1 -29 28 4 15 11 38 17 52 l9 25 13 -30 c7 -16 16 -40 19 -52z"/>
<path d="M8011 7032 c0 -81 3 -160 6 -175 5 -27 8 -28 57 -25 l51 3 -2 63 -1
62 44 0 c87 0 144 46 144 115 0 34 -25 82 -49 95 -11 5 -72 10 -136 10 l-116
0 2 -148z m177 66 c20 -20 14 -48 -15 -59 -38 -14 -53 -5 -53 36 0 32 3 35 28
35 15 0 33 -5 40 -12z"/>
<path d="M7510 7162 c-76 -36 -104 -90 -98 -184 7 -111 63 -162 178 -162 114
0 169 48 178 159 4 52 1 71 -17 107 -32 66 -62 83 -151 85 -41 2 -82 -1 -90
-5z m129 -98 c26 -33 28 -109 5 -142 -11 -16 -25 -22 -54 -22 -50 0 -70 27
-70 94 0 37 5 56 22 73 29 31 71 30 97 -3z"/>
<path d="M7102 7148 c-5 -7 -19 -32 -31 -55 -12 -24 -25 -43 -30 -43 -5 0 -23
23 -41 50 l-32 50 -59 0 c-32 0 -59 -2 -59 -4 0 -3 32 -49 70 -104 l70 -99 0
-72 0 -71 39 0 c68 0 71 4 71 84 0 71 1 73 60 166 33 52 60 98 60 103 0 12
-107 8 -118 -5z"/>
<path d="M7747 5670 c6 -21 31 -44 93 -83 30 -20 49 -44 63 -82 3 -5 7 -7 11
-3 20 17 -48 99 -97 117 -15 6 -36 24 -45 41 -20 34 -33 40 -25 10z"/>
<path d="M8395 5650 c3 -6 -9 -18 -27 -28 -47 -24 -98 -80 -98 -105 0 -17 5
-13 23 18 13 23 37 47 57 57 19 9 41 22 48 28 15 13 16 40 1 40 -5 0 -7 -5 -4
-10z"/>
<path d="M7740 5578 c0 -19 8 -33 26 -45 23 -15 29 -15 52 -2 14 8 28 21 30
29 4 12 1 11 -15 -2 -32 -29 -62 -23 -78 15 l-14 32 -1 -27z"/>
<path d="M8398 5559 c-2 -19 -11 -25 -38 -29 -27 -4 -31 -7 -17 -13 31 -12 46
-8 63 19 12 18 14 28 6 36 -7 7 -11 3 -14 -13z"/>
<path d="M7920 5010 c-11 -7 0 -10 36 -10 29 0 65 -7 80 -15 37 -19 65 -19
111 0 19 8 55 15 79 15 24 0 44 5 44 10 0 17 -106 12 -120 -5 -16 -19 -90 -20
-116 0 -22 16 -91 20 -114 5z"/>
<path d="M8045 5010 c3 -5 24 -10 45 -10 21 0 42 5 45 10 4 6 -13 10 -45 10
-32 0 -49 -4 -45 -10z"/>
<path d="M7892 4943 c2 -5 10 -20 17 -35 18 -35 0 -62 -36 -55 -28 5 -31 -9
-3 -18 31 -10 60 12 60 46 0 34 -16 69 -31 69 -6 0 -9 -3 -7 -7z"/>
<path d="M8236 4928 c-39 -55 0 -117 63 -103 49 11 45 23 -6 22 -47 -2 -48 -1
-51 29 -2 19 3 38 12 47 18 18 20 27 7 27 -6 0 -17 -10 -25 -22z"/>
<path d="M7510 5596 c0 -2 8 -10 18 -17 15 -13 16 -12 3 4 -13 16 -21 21 -21
13z"/>
<path d="M7509 5548 c-6 -20 -6 -39 0 -42 4 -3 7 6 7 20 0 20 -4 32 -7 22z"/>
<path d="M7425 5391 c-3 -5 -2 -12 3 -15 5 -3 9 1 9 9 0 17 -3 19 -12 6z"/>
<path d="M7435 5341 c2 -9 4 -18 5 -21 1 -3 2 -9 1 -13 -1 -5 3 -6 9 -2 8 5 8
11 1 19 -7 8 -7 16 0 23 6 6 5 10 -5 10 -7 0 -12 -7 -11 -16z"/>
<path d="M7400 5315 c0 -2 6 -8 13 -14 10 -8 14 -7 14 2 0 8 -6 14 -14 14 -7
0 -13 -1 -13 -2z"/>
<path d="M7443 5283 c4 -3 1 -13 -6 -22 -11 -14 -10 -14 5 -2 16 12 16 31 1
31 -4 0 -3 -3 0 -7z"/>
<path d="M7449 5243 c-13 -16 -12 -17 4 -4 16 13 21 21 13 21 -2 0 -10 -8 -17
-17z"/>
<path d="M7430 5195 c0 -2 6 -8 13 -14 10 -8 14 -7 14 2 0 8 -6 14 -14 14 -7
0 -13 -1 -13 -2z"/>
<path d="M7470 5151 c0 -6 4 -13 10 -16 6 -3 7 1 4 9 -7 18 -14 21 -14 7z"/>
<path d="M7496 5150 c5 -8 9 -18 9 -22 0 -3 3 -9 7 -13 3 -4 5 0 4 9 -1 9 -8
22 -16 29 -10 10 -11 9 -4 -3z"/>
<path d="M7453 5117 c-1 -12 5 -29 14 -39 18 -21 40 -13 22 8 -6 7 -16 11 -22
7 -6 -4 -8 2 -5 15 4 12 3 24 -1 26 -4 3 -8 -5 -8 -17z"/>
<path d="M7480 5116 c0 -2 8 -10 18 -17 15 -13 16 -12 3 4 -13 16 -21 21 -21
13z"/>
<path d="M7525 5101 c-3 -5 -1 -12 5 -16 6 -4 7 -11 4 -17 -4 -7 -9 -6 -14 2
-5 7 -7 2 -7 -13 l0 -26 17 22 c12 14 15 26 9 33 -5 6 -6 14 -2 17 3 4 4 7 0
7 -3 0 -8 -4 -12 -9z"/>
<path d="M7651 4954 c0 -11 3 -14 6 -6 3 7 2 16 -1 19 -3 4 -6 -2 -5 -13z"/>
<path d="M8587 5579 c7 -7 15 -10 18 -7 3 3 -2 9 -12 12 -14 6 -15 5 -6 -5z"/>
<path d="M8713 5495 c0 -8 4 -12 9 -9 5 3 6 10 3 15 -9 13 -12 11 -12 -6z"/>
<path d="M8786 5492 c-3 -5 1 -9 9 -9 8 0 12 4 9 9 -3 4 -7 8 -9 8 -2 0 -6 -4
-9 -8z"/>
<path d="M8718 5458 c9 -9 9 -15 -1 -27 -11 -14 -10 -14 6 -2 13 10 15 17 6
27 -6 8 -14 14 -17 14 -3 0 -1 -5 6 -12z"/>
<path d="M8746 5431 c-3 -5 2 -15 12 -22 15 -12 16 -12 5 2 -7 9 -10 19 -6 22
3 4 4 7 0 7 -3 0 -8 -4 -11 -9z"/>
<path d="M8802 5414 c-1 -13 0 -24 2 -24 7 0 14 40 7 44 -4 3 -8 -6 -9 -20z"/>
<path d="M8730 5406 c0 -2 8 -10 18 -17 15 -13 16 -12 3 4 -13 16 -21 21 -21
13z"/>
<path d="M8740 5365 c0 -2 6 -8 13 -14 10 -8 14 -7 14 2 0 8 -6 14 -14 14 -7
0 -13 -1 -13 -2z"/>
<path d="M8725 5181 c-3 -5 -1 -12 4 -15 11 -7 9 -25 -4 -46 -8 -13 -7 -13 8
-1 9 7 15 17 12 21 -3 5 -1 11 5 15 18 11 11 -31 -8 -48 -12 -11 -22 -14 -30
-7 -8 7 -9 7 -3 -1 5 -6 7 -19 4 -28 -4 -9 4 -3 16 12 17 20 26 25 35 17 17
-13 29 0 15 17 -8 9 -8 17 -1 26 7 8 6 17 -3 30 -11 16 -13 16 -19 2 -3 -9
-10 -13 -16 -10 -6 4 -8 11 -5 16 4 5 4 9 1 9 -3 0 -7 -4 -11 -9z"/>
<path d="M8685 5161 c-3 -5 -2 -12 3 -15 5 -3 9 1 9 9 0 17 -3 19 -12 6z"/>
<path d="M8663 5093 c0 -9 4 -10 14 -2 7 6 13 12 13 14 0 1 -6 2 -13 2 -8 0
-14 -6 -14 -14z"/>
<path d="M8617 5065 c-4 -8 -2 -17 4 -20 5 -4 6 -11 3 -17 -5 -7 -2 -8 5 -3 9
5 9 11 3 17 -6 6 -8 17 -5 24 3 8 3 14 0 14 -3 0 -7 -7 -10 -15z"/>
<path d="M8640 5066 c0 -8 4 -17 9 -20 5 -4 7 3 4 14 -6 23 -13 26 -13 6z"/>
<path d="M8667 5060 c11 -15 4 -43 -11 -41 -3 1 -6 -2 -6 -6 0 -4 7 -8 16 -9
9 -1 13 0 10 3 -3 3 -1 14 4 23 7 13 5 22 -8 31 -15 12 -15 12 -5 -1z"/>
<path d="M8536 4993 c-6 -14 -5 -15 5 -6 7 7 10 15 7 18 -3 3 -9 -2 -12 -12z"/>
<path d="M8460 4929 c0 -11 4 -18 10 -14 5 3 7 12 3 20 -7 21 -13 19 -13 -6z"/>
<path d="M8521 4933 c-7 -8 -11 -16 -8 -19 2 -2 10 2 17 11 17 20 9 27 -9 8z"/>
<path d="M8816 2289 c-13 -40 -65 -293 -61 -297 7 -7 215 20 215 28 0 6 -138
270 -146 279 -2 2 -6 -2 -8 -10z"/>
<path d="M7060 2319 c-33 -13 -88 -66 -107 -104 -43 -82 -56 -233 -27 -318 35
-104 152 -164 265 -137 74 18 141 85 166 166 27 89 25 236 -4 291 -41 76 -110
113 -207 112 -33 0 -72 -5 -86 -10z"/>
<path d="M7916 2291 c-3 -5 -3 -59 1 -120 l6 -111 88 0 c144 0 199 34 199 122
0 88 -50 118 -194 118 -52 0 -97 -4 -100 -9z"/>
</g>
</svg>
